<svg width="119" height="119" viewBox="0 0 119 119" fill="none" xmlns="http://www.w3.org/2000/svg">
<path d="M24.0194 16.2552C21.9203 16.9168 20.4149 18.2401 19.4796 20.2476L19 21.2972V59.1654V97.0336L19.4796 98.0831C20.1864 99.6111 21.4645 100.912 22.9472 101.642L24.2479 102.28H53.9039H83.5599L84.8606 101.665C86.5254 100.889 87.8713 99.4981 88.4651 97.9237C88.9208 96.6694 88.9208 96.51 88.8756 58.756L88.8078 20.8426L88.283 19.8621C87.5749 18.5388 86.1386 17.1251 84.8379 16.5313L83.7884 16.0517L54.3609 16.0065C31.0678 15.9815 24.7489 16.0279 24.0194 16.2552ZM83.1481 20.9093C84.425 21.6387 84.3572 19.4039 84.3572 59.1654C84.3572 85.6952 84.2894 95.9388 84.1061 96.3029C83.9692 96.5766 83.6265 96.9872 83.3528 97.193C82.8971 97.5584 81.0038 97.6036 53.9479 97.6036H25L24.3383 96.9419L23.6767 96.2803V59.2106V22.1635L24.1563 21.5471C24.4074 21.2282 24.9548 20.8629 25.3427 20.7486C25.7759 20.6118 37.4331 20.5439 54.3597 20.5665C76.8745 20.613 82.7602 20.6808 83.1481 20.9093Z" fill="white"/>
<path d="M31.9128 25.6087C30.818 25.9967 29.4495 27.2283 28.8557 28.3231C28.3535 29.2584 28.3535 29.3953 28.3535 38.1775V47.0739L28.9699 48.1461C29.7684 49.492 31.1821 50.519 32.6649 50.8379C33.486 50.9974 40.5117 51.0664 54.7239 51.02L75.5739 50.9521L76.5092 50.45C77.604 49.88 78.8131 48.5567 79.2462 47.5071C79.4973 46.9145 79.5663 44.9069 79.5663 37.9942V29.2573L78.8369 28.0256C78.3347 27.1819 77.7195 26.5655 76.9662 26.0871L75.8488 25.4028L54.2681 25.3576C37.7295 25.335 32.5054 25.3802 31.9128 25.6087ZM74.6398 30.2164C74.9587 30.5127 75.0051 31.5623 75.0051 38.1549C75.0051 44.2917 74.9361 45.8197 74.6862 46.0255C74.4577 46.2076 68.8004 46.254 53.7672 46.2314L33.1456 46.1624L33.0778 38.2917C33.0326 31.1065 33.0552 30.3985 33.4205 30.1248C33.7168 29.9189 38.2115 29.8511 54.042 29.8511C72.1527 29.8511 74.3196 29.8975 74.6398 30.2164Z" fill="white"/>
<path d="M29.4031 56.1756C28.4452 56.723 28.2631 57.3621 28.2393 60.3502C28.2393 65.0269 28.1703 64.9805 35.1746 64.9805C38.459 64.9805 40.5129 64.8888 40.8545 64.7294C41.8588 64.2736 42.0409 63.5655 42.0409 60.2811C42.0409 57.2466 42.0409 57.224 41.4019 56.6088L40.7855 55.9698L35.3567 55.9246C31.1595 55.8793 29.8363 55.9246 29.4031 56.1756Z" fill="white"/>
<path d="M48.3372 56.1756C47.3792 56.723 47.1971 57.3621 47.1733 60.3728C47.1733 63.4751 47.4244 64.3652 48.4514 64.7532C49.2951 65.0959 59.1733 65.0495 59.7885 64.7079C60.7691 64.2058 60.8381 63.8642 60.8607 60.3966C60.8607 55.6973 61.2939 55.9936 54.2907 55.9257C50.0936 55.8793 48.7703 55.9245 48.3372 56.1756Z" fill="white"/>
<path d="M66.9974 56.1989C66.0169 56.7237 65.8336 57.5448 65.9252 60.853C66.0169 65.1191 65.5599 64.8454 72.5868 64.9359L78.1299 65.0049L78.8593 64.4123L79.5662 63.7958V60.4424C79.5662 55.6979 79.9994 55.9942 72.9962 55.9252C68.6396 55.88 67.4758 55.9252 66.9974 56.1989Z" fill="white"/>
<path d="M28.9009 70.5946C28.3761 71.1646 28.3535 71.3015 28.3535 74.4502C28.3535 77.599 28.3761 77.7358 28.9009 78.3058L29.4483 78.8984H35.083C41.3566 78.8984 41.4935 78.8758 41.9267 77.3479C42.223 76.2531 42.223 72.6486 41.9267 71.5538C41.4935 70.0258 41.3566 70.002 35.083 70.002H29.4483L28.9009 70.5946Z" fill="white"/>
<path d="M47.835 70.5946C47.3102 71.1646 47.2876 71.3015 47.2876 74.4502C47.2876 77.599 47.3102 77.7358 47.835 78.3058L48.3824 78.8984H54.0623H59.7421L60.2895 78.3284C60.8369 77.8036 60.8595 77.6894 60.8595 74.4502C60.8595 71.211 60.8369 71.0968 60.2895 70.572L59.7421 70.002H54.0623H48.3824L47.835 70.5946Z" fill="white"/>
<path d="M66.4725 70.7069C65.9025 71.3912 65.8799 71.5054 65.8799 74.4483C65.8799 77.3911 65.9025 77.5054 66.4725 78.1896L67.0663 78.8965H72.7462H78.4487L78.9961 78.3265C79.5435 77.8017 79.5661 77.6874 79.5661 74.4483C79.5661 71.2091 79.5435 71.0948 78.9961 70.5701L78.4487 70H72.7462H67.0663L66.4725 70.7069Z" fill="white"/>
<path d="M29.4031 84.2352C28.4451 84.7599 28.2631 85.4216 28.2393 88.4323C28.2393 91.5798 28.4677 92.3331 29.5625 92.7889C30.0183 92.9947 31.7759 93.04 35.4935 92.9947L40.7854 92.9257L41.4018 92.2867C42.0409 91.6703 42.0409 91.6477 42.0409 88.6144C42.0409 85.33 41.8588 84.6219 40.8544 84.1661C40.0107 83.7794 30.1099 83.8472 29.4031 84.2352Z" fill="white"/>
<path d="M48.3372 84.2352C47.3792 84.7599 47.1971 85.4216 47.1733 88.4323C47.1733 91.5798 47.4018 92.3331 48.4966 92.7889C48.9524 92.9947 50.71 93.04 54.4276 92.9947C61.2713 92.9031 60.8607 93.2006 60.8607 88.4549V85.1027L60.1539 84.5089L59.447 83.9162H54.1777C50.2304 83.9388 48.7477 84.0067 48.3372 84.2352Z" fill="white"/>
<path d="M67.0199 84.2125C66.0846 84.6921 65.8799 85.399 65.8799 88.4323C65.8799 91.5798 66.1084 92.3331 67.2032 92.7889C67.6589 92.9947 69.4154 93.04 73.1341 92.9947C79.9778 92.9031 79.5673 93.2006 79.5673 88.4549V85.1027L78.8604 84.5089L78.1535 83.9162H72.8842C69.0953 83.9162 67.4305 84.0067 67.0199 84.2125Z" fill="white"/>
<path d="M95.3979 48.8089C95.0099 48.9231 94.5078 49.2194 94.2579 49.4931C93.8473 49.9727 93.8247 50.6332 93.8247 73.4455V96.8956L94.3043 97.3978C94.6006 97.6941 95.1944 97.9226 95.8096 97.9916C96.6533 98.0832 96.927 98.0142 97.497 97.5358L98.1587 96.9658L98.2265 73.5835C98.2717 50.4975 98.2717 50.2238 97.816 49.6538C97.246 48.8993 96.3106 48.5804 95.3979 48.8089Z" fill="white"/>
</svg>
