<svg width="82" height="105" viewBox="0 0 82 105" fill="none" xmlns="http://www.w3.org/2000/svg">
<path d="M80.7201 26.101L55.7115 1.09238C55.0143 0.395117 54.0729 0 53.0852 0H3.71875C1.66182 0 0 1.66182 0 3.71875V100.406C0 102.463 1.66182 104.125 3.71875 104.125H78.0938C80.1507 104.125 81.8125 102.463 81.8125 100.406V28.739C81.8125 27.7512 81.4174 26.7982 80.7201 26.101ZM73.2361 30.4473H51.3652V8.57637L73.2361 30.4473ZM73.4453 95.7578H8.36719V8.36719H43.4629V33.4688C43.4629 34.7632 43.9771 36.0047 44.8925 36.92C45.8078 37.8354 47.0493 38.3496 48.3438 38.3496H73.4453V95.7578Z" fill="white"/>
<path d="M47.0026 61.0003L56.0051 51.9978C57.1098 50.8931 57.1098 49.1019 56.0051 47.9963L54.0043 45.9955C52.8996 44.8908 51.1085 44.8908 50.0028 45.9955L41.0003 54.9981L31.9978 45.9955C30.8931 44.8908 29.1019 44.8908 27.9963 45.9955L25.9955 47.9963C24.8908 49.101 24.8908 50.8922 25.9955 51.9978L34.9981 61.0003L25.9955 70.0028C24.8908 71.1076 24.8908 72.8987 25.9955 74.0043L27.9963 76.0051C29.101 77.1098 30.8931 77.1098 31.9978 76.0051L41.0003 67.0026L50.0028 76.0051C51.1076 77.1098 52.8996 77.1098 54.0043 76.0051L56.0051 74.0043C57.1098 72.8996 57.1098 71.1085 56.0051 70.0028L47.0026 61.0003Z" fill="white"/>
</svg>
