<svg width="119" height="119" viewBox="0 0 119 119" fill="none" xmlns="http://www.w3.org/2000/svg">
<path d="M78.7135 19.833C80.7716 19.8329 82.7517 20.6203 84.2476 22.0337C85.7436 23.4471 86.6419 25.3794 86.7584 27.4341L86.7708 27.8903V34.708H91.1094C98.299 34.708 104.125 40.534 104.125 47.7236V81.1924C104.125 83.3293 103.276 85.3787 101.765 86.8897C100.254 88.4008 98.2046 89.2497 96.0677 89.2497H86.7708V93.5882C86.7708 95.7251 85.9219 97.7745 84.4109 99.2856C82.8999 100.797 80.8505 101.646 78.7135 101.646H40.2865C38.1495 101.646 36.1001 100.797 34.5891 99.2856C33.0781 97.7745 32.2292 95.7251 32.2292 93.5882V89.2497H22.9323C20.7954 89.2497 18.746 88.4008 17.2349 86.8897C15.7239 85.3787 14.875 83.3293 14.875 81.1924V47.7236C14.875 40.534 20.701 34.708 27.8906 34.708H32.2292V27.8903C32.229 25.8323 33.0164 23.8522 34.4299 22.3562C35.8433 20.8603 37.7755 19.9619 39.8303 19.8454L40.2865 19.833H78.7135ZM38.4271 93.5882C38.4271 94.6146 39.2601 95.4476 40.2865 95.4476H78.7135C79.2067 95.4476 79.6796 95.2517 80.0283 94.903C80.377 94.5543 80.5729 94.0814 80.5729 93.5882V72.5153C80.5729 72.0222 80.377 71.5492 80.0283 71.2005C79.6796 70.8518 79.2067 70.6559 78.7135 70.6559H40.2865C39.7933 70.6559 39.3204 70.8518 38.9717 71.2005C38.623 71.5492 38.4271 72.0222 38.4271 72.5153V93.5882ZM78.7135 26.0309H40.2865C39.8371 26.0309 39.403 26.1937 39.0644 26.489C38.7258 26.7843 38.5055 27.1923 38.4444 27.6374L38.4271 27.8903V34.708H80.5729V27.8903C80.5729 27.441 80.4102 27.0069 80.1148 26.6682C79.8195 26.3296 79.4116 26.1094 78.9664 26.0483L78.7135 26.0309Z" fill="white"/>
</svg>
