<svg width="119" height="119" viewBox="0 0 119 119" fill="none" xmlns="http://www.w3.org/2000/svg">
<path d="M99.3139 33.5385L74.3053 8.52988C73.608 7.83262 72.6667 7.4375 71.6789 7.4375H22.3125C20.2556 7.4375 18.5938 9.09932 18.5938 11.1562V107.844C18.5938 109.901 20.2556 111.562 22.3125 111.562H96.6875C98.7444 111.562 100.406 109.901 100.406 107.844V36.1765C100.406 35.1887 100.011 34.2357 99.3139 33.5385ZM91.8299 37.8848H69.959V16.0139L91.8299 37.8848ZM92.0391 103.195H26.9609V15.8047H62.0566V40.9062C62.0566 42.2007 62.5709 43.4422 63.4862 44.3575C64.4015 45.2729 65.643 45.7871 66.9375 45.7871H92.0391V103.195ZM54.8516 86.4609C54.8516 87.6938 55.3413 88.8761 56.2131 89.7479C57.0848 90.6196 58.2672 91.1094 59.5 91.1094C60.7328 91.1094 61.9152 90.6196 62.7869 89.7479C63.6587 88.8761 64.1484 87.6938 64.1484 86.4609C64.1484 85.2281 63.6587 84.0457 62.7869 83.174C61.9152 82.3022 60.7328 81.8125 59.5 81.8125C58.2672 81.8125 57.0848 82.3022 56.2131 83.174C55.3413 84.0457 54.8516 85.2281 54.8516 86.4609ZM56.7109 74.375H62.2891C62.8004 74.375 63.2188 73.9566 63.2188 73.4453V52.0625C63.2188 51.5512 62.8004 51.1328 62.2891 51.1328H56.7109C56.1996 51.1328 55.7812 51.5512 55.7812 52.0625V73.4453C55.7812 73.9566 56.1996 74.375 56.7109 74.375Z" fill="white"/>
</svg>
